<?xml version="1.0" encoding="UTF-8" standalone="no"?><!DOCTYPE svg PUBLIC "-//W3C//DTD SVG 1.1//EN" "http://www.w3.org/Graphics/SVG/1.1/DTD/svg11.dtd"><svg width="100%" height="100%" viewBox="0 0 2868 4177" version="1.1" xmlns="http://www.w3.org/2000/svg" xmlns:xlink="http://www.w3.org/1999/xlink" xml:space="preserve" xmlns:serif="http://www.serif.com/" style="fill-rule:evenodd;clip-rule:evenodd;stroke-linejoin:round;stroke-miterlimit:2;"><g id="Logo"><path d="M445.818,627.674c37.107,6.676 34.958,10.685 68.913,25.154c5.692,1.935 5.431,-0.95 10.993,0.94c2.329,0.791 2.115,0.843 28.558,11.381c11.378,3.926 22.756,7.852 34.134,11.778c21.676,12.007 21.458,10.501 45.623,17.31c3.885,1.663 7.771,3.325 11.656,4.988c61.267,17.98 60.905,16.873 120.436,38.569c7.445,2.343 14.89,4.687 22.335,7.03c13.571,3.158 27.142,6.315 40.713,9.473c6.022,0.874 17.852,2.592 73.442,19.811c2.588,0.974 12.274,4.619 34.024,6.075c13.928,6.972 13.092,6.107 28.883,10.562c7.311,1.782 60.482,14.742 91.511,21.746l11.154,1.684c9.133,2.538 18.266,5.075 27.399,7.613c18.555,5.042 18.297,1.823 36.163,6.858l26.951,3.871c0.792,0.157 1.046,1.421 1.838,1.579c1.73,0.344 1.611,0.271 21.746,3.655c14.239,2.868 115.186,23.201 177.35,38.905c5.71,1.864 11.42,3.729 17.129,5.593c254.72,44.854 251.998,60.935 365.031,66.187c6.68,3.877 5.794,7.056 12.603,3.718c2.349,-2.637 1.491,-1.915 12.766,-39.545c5.684,-8.7 45.148,-92.751 111.996,-94.015c2.596,0.122 11.715,0.549 28.814,14.995c-78.849,21 -94.307,129.767 -103.212,168.649c-9.239,8.368 -9.569,5.012 -22.4,5.749c-21.571,-8.256 -21.557,-3.574 -57.202,-10.623c-53.61,-8.808 -52.62,-8.129 -108.632,-16.141c-1.313,-0.667 -1.207,-0.326 -17.082,-6.854c-9.816,-0.183 -9.333,3.947 -27.996,-3.001c-17.227,-3.277 -34.455,-6.553 -51.682,-9.83c-15.434,-5.276 -59.548,-10.808 -67.848,-12.505c-44.051,-4.995 -247.978,-50.756 -269.454,-55.575c-86.472,-26.237 -95.827,-16.258 -90.082,-11.806c5.581,4.326 6.477,-0.025 85.559,21.693c151.126,36.547 167.247,31.032 188.032,40.621c-12.015,3.216 -57.202,15.311 -154.856,-13.796c-9.275,-3.518 -8.489,-1.502 -17.914,-5.369c-37.19,-7.942 -36.887,-5.532 -73.553,-13.505c-16.927,-3.681 -16.126,-3.127 -33.949,-6.583c-63.866,-13.565 -62.781,-14.082 -80.374,-16.194c-54.46,-16.479 -53.98,-13.366 -108.632,-27.715c-40.336,-7.819 -39.854,-6.824 -79.803,-18.17c-13.139,-4.256 -26.279,-8.512 -39.418,-12.768c-35.883,-7.438 -132.128,-33.24 -160.386,-44.755c-11.006,-4.479 -22.012,-8.958 -33.018,-13.437c-33.025,-7.717 -31.559,-10.133 -69.935,-26.171c-21.768,-8.341 -21.457,-8.653 -23.418,-9.093c-8.727,-1.959 -8.682,4.113 1.051,111.795c1.603,13.368 3.206,26.737 4.809,40.105c0.113,5.677 0.225,11.354 0.338,17.03c4.935,34.767 4.262,34.079 6.385,68.523c0.351,6.404 2.181,39.794 5.759,79.964c1.197,7.793 2.395,15.586 3.592,23.378c10.992,133.42 9.77,134.938 18.164,142.826c-7.874,24.496 -0.527,109.957 0.292,119.481c15.051,175.09 10.621,-100.141 11.598,-125.726c5.608,-28.562 12.353,-202.894 12.175,-205.081c5.931,-40.85 4.455,-39.716 5.326,-80.509c0.009,-37.528 -0.225,-36.548 4.755,-74.176c-1.947,-5.828 -3.893,-11.657 -5.84,-17.485c4.706,-13.172 3.339,-14.537 7.379,-14.457c67.919,1.348 193.296,50.802 209.453,57.175c3.408,1.744 6.816,3.489 10.224,5.233c39.44,25.586 72.333,102.245 76.62,112.236c-0.777,3.174 -1.554,6.348 -2.331,9.521c-60.416,147.669 -69.41,141.653 -124.271,230.25l-2.961,1.08c-5.683,4.348 -5.773,3.343 -7.455,11.258c-9.534,4.68 -8.963,3.635 -17.546,10.49c-3.595,3.989 -7.19,7.978 -10.785,11.967c-9.844,7.146 -21.862,20.372 -23.609,22.294c-3.354,2.369 -6.708,4.737 -10.062,7.106c-2.743,3.28 -5.486,6.56 -8.229,9.841c-13.995,4.394 -12.176,6.43 -24.211,15.405c-120.623,89.947 29.537,-6.846 31.663,-8.377c15.119,-11.77 30.238,-23.539 45.357,-35.309l11.181,-5.927c17.146,-11.968 16.483,-11.448 34.213,-23.969c18.762,-9.59 17.841,-8.481 35.561,-19.081c8.045,-4.531 44.684,-32.498 73.143,-37.421l23.485,-8.879l5.068,-2.715c40.488,-15.767 38.975,-17.415 80.433,-26.619c20.408,-4.916 19.229,-6.159 39.941,-11.151c37.583,-10.748 36.561,-11.5 39.767,-12.409c32.459,-9.802 20.631,18.921 21.124,22.025c-15.763,-9.219 -15.88,-6.958 -33.355,-2.043c-62.438,27.245 -88.47,45.029 -95.593,49.895c-47.31,32.564 -46.939,30.571 -96.862,56.516c-5.262,2.488 -64.532,30.514 -64.837,32.997c-0.713,5.804 5.625,10.795 69.635,-22.209c82.596,-36.324 79.983,-40.369 166.809,-66.214c5.521,-1.949 11.042,-3.899 16.563,-5.848c69.057,-22.011 67.254,-25.165 137.476,-40.344c30.816,-10.271 29.573,-13.567 55.975,-14.638l22.212,-7.068c41.533,5.333 40.36,7.74 80.496,19.853c27.045,11.186 26.538,9.983 28.815,10.927c5.715,5.424 5.49,3.706 13.514,4.396c41.238,27.534 70.785,31.556 129.198,98.656c31.795,39.85 41.687,79.78 43.565,87.36c6.567,29.312 17.279,10.735 30.298,3.106c6.634,-14.379 3.03,-14.507 -7.465,-27.473c-1.318,-7.595 -2.637,-15.191 -3.955,-22.786c-1.311,-4.238 -2.622,-8.476 -3.933,-12.714c-7.298,-12.374 -3.566,-15.072 -45.995,-58.39c-13.945,-14.843 -12.695,-14.623 -30.325,-25.561c-68.601,-68.035 -134.489,-67.758 -147.471,-67.703c-18.211,-17.634 -47.02,-5.614 -75.279,-25.827c15.413,-1.36 14.595,-1.536 29.669,-2.619c46.41,-3.335 44.464,8.183 91.087,15.242c5.548,2.346 11.097,4.692 16.645,7.038c63.36,9.566 137.153,72.289 147.405,81.003c2.249,3.246 4.499,6.491 6.748,9.737c27.922,34.662 25.506,34.798 47.937,72.781c2.049,4.117 4.098,8.234 6.147,12.352c5.62,19.322 9.483,21.327 28.069,13.56c17.195,-6.192 17.136,-4.782 32.307,-15.826c27.451,-11.589 17.262,-24.889 34.854,-30.951c12.088,-4.165 24.602,19.638 -53.959,76.633c-7.194,5.656 -14.388,11.313 -21.582,16.969c-37.912,24.087 -77.133,45.374 -83.971,49.086c-22.511,12.472 -21.734,11.959 -22.529,12.601c-17.99,10.235 -17.404,9.68 -35.853,19.314l-5.987,2.745c-5.895,-22.231 -14.963,-19.573 -12.872,-42.155c60.632,-5.704 45.115,-40.23 43.077,-44.763c-2.475,-5.297 -0.277,-4.975 -2.835,-10.45c-0.507,-1.085 0,0 -7.681,-12.853c-48.831,-79.455 -50.914,-77.902 -126.851,-132.068c-24.825,-13.302 -48.365,-23.343 -52.661,-25.175c-37.181,-5.903 -35.392,-11.285 -73.128,-11.866l-18.384,6.868c-86.397,27.035 -85.983,24.655 -171.684,52.098c-11.25,3.64 -22.5,7.28 -33.75,10.92c-20.278,6.464 -18.916,7.526 -39.368,14.046c-2.772,0.884 -2.584,0.764 -34.878,10.314l-22.931,10.637c-105.109,44.735 -157.344,50.009 -320.842,142.2c-13.497,6.102 -13.648,4.498 -25.269,14.739c-30.656,138.378 -34.628,344.195 -24.978,387.649c7.709,72.068 12.398,80.73 -46.787,123.636c-40.316,29.227 -93.512,3.111 -63.321,43.314c1.011,1.346 -3.583,1.909 2.794,20.861c6.197,10.644 5.419,9.959 14.095,19.822c39.629,40.125 43.065,35.325 58.732,46.009c0.815,0.618 32.439,23.267 10.256,-7.629c-4.08,-4.166 -3.424,-4.082 -15.5,-23.302c1.076,-11.801 8.639,-12.905 -3.847,-33.003c0.504,-1.765 9.725,-34.059 14.421,-17.851c15.894,54.854 30.852,45.042 62.044,93.011c13.506,13.707 16.034,16.564 31.373,4.404c52.405,-79.611 92.252,-17.18 177.553,-84.562c0.338,-0.267 43.751,-24.556 47.558,-26.686c14.065,-5.297 12.512,-9.118 3.831,-21.539c-17.447,-19.72 -19.465,-30.038 -21.954,-41.225c-2.628,-7.02 -5.256,-14.041 -7.883,-21.061c-26.811,-49.192 -38.554,-39.312 -68.094,-85.936c-11.022,-22.394 -11.513,-21.369 -19.337,-44.934l-5.962,-11.574c-2.417,-10.772 -5.401,-9.654 -42.17,-131.398c-1.04,-3.833 -2.08,-7.666 -3.119,-11.498l0.695,-6.749c2.254,-1.285 4.508,-2.569 6.762,-3.854c7.377,11.297 72.455,5.36 154.125,25.821c0.077,0.054 -0.003,0.009 16.894,7.952c31.793,15.178 31.44,15.458 34.337,16.393c87.567,28.256 -19.44,-22.153 -21.743,-23.238c-8.767,-7.368 -7.941,-6.251 -17.124,-11.188c-20.786,-29.282 -2.005,-51.841 0.822,-55.238c45.411,-54.548 90.284,-56.082 106.435,-59.698c3.846,-1.607 7.692,-3.215 11.538,-4.822c7.588,-0.225 15.177,-0.45 22.765,-0.675c2.772,-1.096 1.952,0.502 5.436,-0.875c0.971,-0.384 0,0 11.703,-5.767c144.172,-15.853 155.556,-7.559 147.482,1.044c-14.305,15.243 -54.04,39.925 -68.288,50.113c-4.111,1.828 -3.712,2.375 -50.65,24.429c-5.578,2.13 -11.156,4.26 -16.734,6.39c-11.555,2.086 -23.11,4.173 -34.665,6.259c-20.82,1.06 -21.135,-2.166 -33.902,5.045c0.174,1.66 0.348,3.32 0.522,4.98l3.703,1.965c6.811,1.541 5.901,0.618 12.618,-1.348c5.685,1.396 11.37,2.792 17.054,4.188c20.318,2.862 19.154,4.201 40.337,0.175c7.699,-0.958 15.397,-1.917 23.096,-2.875c22.687,-10.137 22.029,-9.072 42.789,-20.942c16.196,1.277 15.891,2.373 30.817,-5.659c3.408,-1.643 6.817,-3.286 10.225,-4.928c3.99,2.478 7.98,4.955 11.97,7.433c-8.113,6.198 -7.156,5.784 -15.373,11.744c-66.922,48.531 20.227,-0.109 21.748,-0.957c5.537,-4.573 5.241,-2.927 10.583,-7.34c0.611,-0.505 0,0 7.044,-6.969c15.408,-7.635 14.493,-6.741 29.363,-16.776c58.99,-47.933 64.474,-37.308 158.143,-78.497c0.98,-0.431 0,0 11.898,-6.123c3.694,-0.231 7.388,-0.462 11.082,-0.693c13.521,0.353 27.042,0.706 40.563,1.06c18.211,2.86 26.588,6.448 14.069,20.184c-12.594,13.819 -10.72,14.26 -23.433,27.917c-6.096,6.218 -5.753,5.611 -6.096,6.218c-2.012,3.561 1.517,3.694 -0.217,6.763c-26.759,13.23 -44.487,41.792 -76.893,58.132l-12.611,11.909c-21.512,8.152 -28.017,18.301 -32.674,22.38c-3.776,2.36 -35.25,19.03 -56.415,42.097c-17.334,13.794 -107.707,150.081 -147.253,195.314c-4.065,4.649 -28.846,32.994 -75.367,16.683c-0.814,-0.288 -10.17,-3.605 -10.17,-3.605c-9.691,3.876 -0.925,5.55 6.745,12.579c50.374,43.357 48.973,43.817 92.774,94.822c13.378,15.578 -11.92,243.01 -17.81,266.45c-41.769,166.238 24.993,-37.656 39.468,-72.318l7.524,-5.453c14.695,31.336 -27.004,253.676 -54.592,275.297c-15.076,-7.483 -13.506,-8.83 -29.103,-9.504c-11.83,-4.44 -43.78,-21.501 -69.01,-24.75c-17.156,0.286 -71.816,-33.971 -132.727,-23.963c-39.909,-14.74 2.797,-19.795 35.537,-47.262c18.028,-14.602 42.046,-31.424 45.784,-34.043c40.07,-40.878 -93.369,-5.594 -131.609,-5.975c-7.604,1.906 -15.209,3.812 -22.813,5.717c-57.92,15.976 -57.596,16.515 -62.636,17.834c-9.567,3.607 -19.135,7.214 -28.702,10.822c-84.206,33.168 -92.05,38.712 -99.128,43.714c-17.835,12.605 -9.95,18.68 8.718,28.647l6.783,7.141l-4.45,10.468c-1.07,3.769 -2.013,2.737 -2.008,7.074c0.005,5.027 0.027,25.072 -6.171,62.54c-0.539,1.34 -5.123,12.733 -5.57,17.173c-5.766,57.328 15.427,-10.036 15.899,-11.535c44.834,-57.729 109.752,-65.864 143.248,-73.289l17.008,-5.306c11.787,-0.997 113.857,-9.626 147.861,1.405c21.239,4.16 21.114,4.081 22.938,4.493c3.937,0.889 2.659,2.333 6.48,3.196c26.17,6.181 26.133,6.197 28.253,5.305c14.81,-6.231 11.834,4.776 27.309,10.104c23.217,6.897 116.183,42.783 119.573,49.485c1.838,3.634 -1.752,2.37 -40.056,31.401c-150.621,114.157 -243.369,104.67 -266.056,102.349c-68.328,-18.408 -1.821,39.66 0.702,41.863c-6.46,9.39 -9.852,14.335 -64.472,-10.516c-45.259,-16.316 -65.002,-39.564 -58.141,-11.371c4.908,20.167 5.081,18.929 10.747,40.036c10.264,27.701 17.921,23.821 20.952,52.01l-7.057,0.986l-16.285,-3.495c-5.168,-4.954 -7.937,0.359 -70.006,-55.748c-1.763,-3.925 -3.526,-7.851 -5.289,-11.776c-7.299,-9.81 -7.136,-8.873 -15.145,-17.278c-1.694,-10.931 -1.985,-9.887 -4.784,-20.353c-7.505,-14.28 -4.161,-32.423 -12.954,-18.027c-6.632,10.858 -1.216,10.443 3.572,21.674c4.726,69.971 20.629,110.117 24.212,119.161c5.788,8.55 4.618,8.329 9.465,12.063c1.528,27.274 -2.518,27.38 -4.417,26.392c-65.59,-34.098 -80.946,-146.246 -91.169,-169.457c-8.779,-71.002 -21.702,-66.457 -41.092,-136.44c-4.052,-13.034 -4.548,-11.649 -10.919,-22.972c-5.135,-15.934 -5.155,-15.817 -5.546,-17.209c-1.586,-5.645 -0.158,-4.895 -1.8,-10.739l-5.964,-11.645c-15.837,-36.822 -15.234,-35.965 -27.089,-74.532c-2.164,-5.698 -4.328,-11.396 -6.492,-17.094c-3.383,-12.318 -2.323,-11.843 -9.109,-23.22c-10.616,-29.062 -32.999,-94.085 -35.821,-102.282c-5.612,-10.596 -8.037,-22.47 -8.451,-24.502c-4.692,-14.9 -10.999,-29.26 -15.691,-44.16c-26.947,-85.584 -21.566,-164.128 -30.115,-190.394c-17.937,-17.619 -42.921,-37.796 -46.79,-40.92c-4.868,-6.484 -3.56,-6.67 -10.223,-9.748c-9.155,-13.815 -19.437,-17.233 -20.775,-55.839c-3.195,-6.438 -2.84,-5.986 -3.195,-6.438c-2.744,-3.496 -3.515,-1.628 -6.176,-5.02c3.301,-10.519 7.215,-29.403 12.979,-45.444l4.885,-11.348c6.407,-16.132 7.125,-14.819 17.488,-28.017c7.591,-5.773 39.877,-29.072 43.357,-31.583c6.872,-1.078 47.506,-7.455 86.713,6.453c3.033,9.625 6.355,11.049 -1.895,16.04c-34.913,21.121 -32.481,22.286 -65.774,43.87c-3.401,3.24 -14.796,16.381 3.921,10.45c1.894,-0.379 11.211,-2.244 22.872,-7.747c33.085,3.266 35.688,-16.53 38.29,-18.596c12.315,-8.545 11.481,-8.997 12.542,-9.69c1.132,1.827 7.506,12.12 12.297,23.891c0.07,7.583 0.14,15.166 0.21,22.75c0.046,3.867 0.092,7.734 0.138,11.601c-2.671,91.116 -13.005,93.244 -6.213,97.035c16.993,9.486 17.896,-78.19 22.072,-96.997c-0.853,-5.287 -1.705,-10.574 -2.558,-15.861c10.002,-43.537 9.125,-42.698 8.982,-87.1c4.435,-11.009 3.878,-10.103 5.389,-22.851c-1.698,-40.917 -1.019,-39.961 5.706,-79.964l-0.07,-17.128c-0.2,-5.494 -1.046,-28.726 4.679,-68.557l-0.357,-27.995c1.208,-29.169 -16.196,-13.152 -71.6,-31.806l-17.084,-5.712c-5.571,-1.66 -11.142,-3.321 -16.713,-4.981c-22.491,-8.405 -22.363,-8.309 -24.29,-9.078c-9.062,-3.614 -7.788,-4.406 -16.364,-7.827c-117.934,-46.208 -168.807,-54.606 -209.274,20.269c-44.456,82.257 -7.415,170.841 -5.064,188.397c2.541,6.902 23.542,63.959 38.65,83.42c29.7,38.257 67.936,31.772 48.837,39.887c-41.018,17.428 -96.608,-64.866 -102.239,-73.202c-2.671,-5.368 -5.341,-10.736 -8.012,-16.105c-6.184,-13.225 -6.115,-11.719 -12.593,-25.71c-10.24,-31.063 -7.672,-30.871 -20.981,-59.839c-0.288,-4.357 -0.575,-8.713 -0.863,-13.07l1.629,-28.063l0.347,-5.717c1.383,-13.394 2.765,-26.787 4.148,-40.181c0.836,-4.443 -4.962,-13.239 26.19,-79.482c1.819,-3.379 3.638,-6.758 5.456,-10.137c18.08,-16.276 14.177,-18.546 30.997,-37.307c2.631,-0.869 18.638,-6.157 29.997,-17.307c14.904,-30.02 86.268,-3.307 93.256,-0.691l10.369,2.373c13.449,8.52 16.768,20.142 22.372,5.683c2.111,-5.447 -1.464,-4.241 -18.55,-15.557l-5.705,-5.143c-2.244,-2.917 -18.031,-23.435 -28.332,-36.249c-2.297,-12.321 -10.895,-41.668 -11.948,-45.262c-5.048,-20.262 -3.593,-19.547 -5.01,-40.427l-0.067,-57.109c0.436,-5.795 0.871,-11.59 1.307,-17.385l-2.53,-22.129c3.802,-12.197 3.49,-10.984 6.81,-24.264l1.519,-5.028c3.165,-5.685 6.329,-11.37 9.494,-17.055c-1.388,-1.383 -2.775,-2.766 -4.163,-4.149c-13.609,12.216 -13.973,10.797 -14.946,11.981c-17.121,19.765 -16.595,18.873 -33.26,39.125c-0.939,1.418 -7.464,11.274 -13.669,16.282c-1.777,3.68 -3.553,7.361 -5.33,11.041c-3.406,4.281 -6.813,8.562 -10.219,12.843c-9.845,15.987 -9.819,15.863 -10.633,17.266c-7.763,13.377 -1.98,54.17 -13.027,37.268c-10.696,-16.367 -21.129,-14.674 -12.418,-33.045c9.623,-6.284 9.3,-6.024 11.386,-17.132c16.691,-47.232 16.02,-46.813 17.671,-50.786c15.587,-29.895 16.317,-28.216 35.911,-56.083c4.091,-3.353 8.182,-6.707 12.272,-10.06c39.827,-46.776 44.885,-40.852 83.493,-87.628c13.718,-14.764 17.373,-21.219 18.547,-23.292c10.868,-7.466 12.007,-6.282 14.408,-18.456c16.341,-12.786 14.111,-13.876 28.046,-28.489c28.05,-30.348 30.005,-29.886 28.382,-33.595c-1.284,-2.933 -5.109,-6.474 -33.559,21.813c-28.047,27.168 -32.753,19.121 -62.914,45.384c-99.912,64.842 -139.055,119.545 -148.313,132.483c-6.567,5.401 -5.819,4.777 -11.318,11.315c-75.601,58.41 -88.29,193.17 -85.327,97.242c0.38,-12.298 38.105,-88.667 41.821,-96.191c4.931,-7.946 9.863,-15.893 14.794,-23.839c3.657,-5.908 7.313,-11.817 10.97,-17.725c2.381,-3.161 2.559,-1.438 31.58,-38.08c1.902,-1.621 3.804,-3.241 5.706,-4.862c5.66,-10.987 6.606,-9.414 17.117,-17.249c1.789,-1.774 3.578,-3.549 5.368,-5.323c30.195,-41.669 36.133,-34.663 75.873,-67.923c49.688,-38.607 44.941,-42.676 94.555,-82.149c3.506,-3.935 7.012,-7.871 10.518,-11.806c4.503,-3.509 9.006,-7.017 13.509,-10.526c1.766,-1.428 3.531,-2.857 5.297,-4.285c15.491,-13.987 15.291,-12.456 27.931,-29.298c16.432,-17.799 14.704,-17.693 30.433,-37.556c0.841,-1.496 6.837,-12.165 13.23,-16.888c2,-2.673 14.824,-19.812 26.092,-32.575l8.614,-18.139c1.257,-2.403 9.388,-17.95 12.024,-31.701Zm314.174,1511.108c-10.981,12.475 -10.609,20.138 5.948,20.353c10.767,0.14 2.938,-8.062 11.013,-14.236c124.706,51.929 144.022,56.529 163.218,75.784c6.565,26.122 -5.162,23.132 -14.559,31.56l-5.229,-0.434c6.999,-24.316 6.224,-25 4.615,-26.42c-14.026,-12.375 -8.036,7.242 -22.451,19.316c-113.276,-35.207 -142.094,-40.929 -279.068,4.074c-36.701,14.372 -36.336,13.215 -69.083,33.815c-5.545,4.004 -5.705,2.525 -8.297,9.396c-35.257,39.574 -36.932,38.941 -50.172,90.663c-2.772,-1.438 -5.544,-2.875 -8.316,-4.313c-7.444,-34.906 -7.457,-33.791 -18.765,-67.811c0.93,-1.056 0.229,-0.469 11.239,-5.839c3.523,10.498 18.642,58.181 19.424,11.891c0.582,-34.44 32.709,-124.053 61.054,-142.136c0.841,-0.536 1.749,-1.116 5.955,-10.954c3.436,0.23 6.872,0.46 10.308,0.69c7.389,3.858 14.778,7.716 22.167,11.574c21.538,-5.192 21.329,-2.572 36.108,-11.566c38.1,31.934 16.254,-12.269 16.208,-13.546c46.858,-35.565 51.682,-24.094 108.684,-11.86Zm-459.637,-820.74c16.733,4.337 14.922,11.326 32.052,7.738l4.361,2.62c21.91,35.184 23.104,33.004 51.214,62.881c0.336,9.753 1.717,9.646 -5.126,16.378c-4.041,-1.524 -8.082,-3.048 -12.124,-4.573c0.71,-10.695 -1.603,-14.66 -15.866,-8.967c-44.74,-23.264 -40.903,-28.41 -54.512,-76.077Zm111.306,-469.583c3.201,0.013 1.593,-2.79 4.19,-2.779c0.999,0.004 0,0 12.157,2.84c0.535,2.236 4.997,7.267 5.396,22.555c1.927,73.74 15.64,71.037 19.949,143.997c5.547,93.912 -13.394,-67.129 -44.834,-114.633c8.894,-10.021 14.51,-11.943 3.205,-20.232c11.272,-11.526 4.21,-12.694 -2.515,-27.599l2.451,-4.149Zm-131.544,382.454c5.216,2.18 10.433,4.36 15.649,6.541c13.286,42.474 20.228,48.934 41.002,90.946l-4.361,-2.62c-17.131,3.588 -15.32,-3.401 -32.052,-7.738c-2.704,-9.853 -3.213,-8.792 -5.938,-18.03c21.582,-8.422 15.897,-19.694 -4.873,-27.576c-0.486,-3.371 -4.359,-30.218 -9.426,-41.523Zm660.053,989.771c15.223,5.378 13.485,6.147 26.369,14.468c-12.395,7.104 -11.541,6.344 -12.395,7.104c-67.688,60.275 19.997,2.633 21.435,1.688c10.53,6.257 18.094,13.531 19.509,14.892c-4.192,1.753 -8.384,3.506 -12.575,5.259c-4.647,-0.152 -29.612,-0.97 -56.902,-11.85c9.397,-8.429 21.124,-5.439 14.559,-31.56Zm-660.053,-989.771c-0.322,-3.156 -5.413,-53.066 4.935,-39.348c2.27,3.01 2.608,3.458 10.714,45.889c-5.216,-2.18 -10.433,-4.36 -15.649,-6.541Zm107.865,160.367c12.333,12.513 14.076,9.318 24.796,22.101c-2.435,2.362 -4.869,4.724 -7.304,7.086c-6.847,-4.374 -20.784,-11.829 -22.618,-12.81c6.842,-6.732 5.462,-6.624 5.126,-16.378Zm9.231,-514.921c4.838,1.283 9.675,2.565 14.513,3.848c11.305,8.289 5.689,10.211 -3.205,20.232c-16.421,-8.286 -11.864,-16.786 -11.307,-24.08Zm-107.669,396.077c20.771,7.882 26.455,19.154 4.873,27.576c-1.624,-9.192 -3.249,-18.384 -4.873,-27.576Zm119.667,-419.828c6.725,14.905 13.787,16.073 2.515,27.599c-4.838,-1.283 -9.675,-2.565 -14.513,-3.848l11.998,-23.751Zm242.097,1298.035c0.046,1.277 21.892,45.481 -16.208,13.546l16.208,-13.546Zm-239.647,-1302.184c4.557,-6.9 4.368,-6.266 4.557,-6.9c13.515,-45.268 11.931,5.874 11.79,6.96c-12.157,-2.84 -11.158,-2.836 -12.157,-2.84c-2.598,-0.01 -0.989,2.792 -4.19,2.779Zm57.03,1433.083c0.858,1.775 1.912,-0.954 3.329,1.977c0.789,1.632 0.597,1.568 8.064,21.173c-11.01,5.37 -10.309,4.783 -11.239,5.839c-2.221,-7.658 -4.442,-15.316 -6.663,-22.974c2.17,-2.005 4.34,-4.01 6.51,-6.014Zm291.3,-142.76c5.654,2.039 11.307,4.078 16.961,6.117c-8.076,6.174 -0.246,14.376 -11.013,14.236c-16.557,-0.215 -16.929,-7.879 -5.948,-20.353Zm142.554,105.924c14.415,-12.074 8.425,-31.691 22.451,-19.316c1.609,1.419 2.384,2.103 -4.615,26.42c-9.26,-4.885 -9.187,-2.609 -17.836,-7.104Zm-314.277,-87.881c9.398,6.482 6.488,7.829 10.723,18.93c-7.389,-3.858 -14.778,-7.716 -22.167,-11.574c3.815,-2.452 7.629,-4.904 11.444,-7.356Zm378.271,78.326c3.013,2.931 6.027,5.862 9.04,8.792c-1.437,0.945 -89.123,58.586 -21.435,-1.688c0.854,-0.76 0,0 12.395,-7.104Zm-611.673,-841.033c14.264,-5.693 16.576,-1.729 15.866,8.967c-10.403,-8.079 -9.523,-7.499 -10.403,-8.079c-3.437,-2.268 -3.103,0.67 -5.464,-0.888Zm640.222,864.717c45.933,30.312 -11.582,5.708 -12.575,5.259c4.192,-1.753 8.384,-3.506 12.575,-5.259Zm-507.478,119.506c2.772,1.438 5.544,2.875 8.316,4.313c0.769,10.917 5.241,18.922 -4.577,13.564c-9.606,-5.243 -3.937,-7.067 -3.739,-17.876Zm-74.832,-964.96c7.108,4.02 6.101,4.295 9.329,11.109l-4.939,2.04c-3.898,-2.021 -7.796,-4.042 -11.693,-6.063c2.435,-2.362 4.869,-4.724 7.304,-7.086Zm55.914,868.161c-2.17,2.005 -4.34,4.01 -6.51,6.014c-0.312,-1.306 -5.409,-22.672 5.164,-15.972c0.679,0.43 0,0 1.345,9.958Z" style="fill:#fff;"/><path d="M2061.006,1094.187c7.007,-117.421 75.725,135.259 -137.332,238.021c-7.175,4.223 -14.35,8.446 -21.525,12.669c-58.677,36.919 -55.941,38.543 -113.952,74.746c-4.258,2.803 -8.515,5.606 -12.773,8.409c-50.475,34.849 -50.072,34.923 -62.07,42.373l-12.297,9.299c-27.478,19.044 -51.276,34.027 -55.804,36.878c-7.181,5.22 -6.076,4.476 -11.59,10.719c-51.071,31.161 -47.964,34.585 -98.978,67.019c-2.855,1.947 -1.741,2.281 -32.77,28.141c-26.907,13.735 -152.869,98.992 -154.459,110.921c-0.907,6.806 -3.361,25.22 2.007,85.806c2.138,5.75 4.277,11.5 6.415,17.25c0.355,5.481 2.249,34.773 4.863,68.48c2.838,17.763 8.645,16.002 5.914,34.437c2.767,15.777 15.582,147.35 28.841,222.483c0.4,2.267 -0.093,2.13 -1.255,28.75c10.301,58.804 11.656,99.781 11.945,108.51l-0.165,5.709c6.087,44.918 6.661,68.344 6.807,74.312c6.462,33.408 21.049,325.737 16.499,360.043c-5.147,38.802 -10.056,52.552 -11.619,56.93c3.179,6.992 3.402,10.589 9.695,4.709c11.736,-16.327 10.823,-23.897 31.707,-43.068c4.042,-3.311 8.085,-6.622 12.127,-9.933c145.113,-166.81 211.157,-235.789 267.572,-315.562c12.078,-12.34 11.126,-11.717 19.965,-25.28c50.777,-67.298 49.061,-67.609 54.147,-72.785c2.876,-4.352 5.751,-8.703 8.627,-13.055c27.027,-37.703 24.168,-38.721 48.927,-78.404c1.163,-5.854 2.327,-11.709 3.49,-17.563c0.255,-0.301 -0.012,-0.026 11.45,-10.769c25.046,17.138 -0.461,77.939 -3.067,84.151c-3.641,7.18 -7.282,14.359 -10.923,21.539c-160.73,267.104 -320.365,345.887 -249.368,320.574c6.015,-2.144 143.56,-144.274 186.245,-178.279c4.017,-3.2 20.256,-23.029 21.946,-25.092c7.117,-3.541 6.596,-2.982 10.178,-10.39l12.997,-12.081c2.776,-2.559 5.552,-5.118 8.328,-7.677c4.762,-6.858 9.524,-13.716 14.286,-20.574c5.536,-4.413 9.519,-7.588 60.412,-64.665l1.582,-3.32c30.847,-39.908 29.827,-44.788 6.03,-88.71c-0.968,-1.786 -6.385,-20.65 -6.904,-22.456c-4.342,-10.174 -21.948,-59.71 -31.051,-73.555c-17.968,-64.583 -19.456,-63.35 -20.991,-68.905c-0.658,-6.976 -1.603,-5.828 -15.594,-86.188c-0.668,-9.348 -1.335,-18.696 -2.003,-28.044c-1.79,-9.515 -3.579,-19.03 -5.369,-28.545c-2.428,-88.387 -3.722,-93.106 15.543,-194.473c14.513,-38.219 14.326,-37.001 17.185,-46.255c0.281,-0.717 7.459,-32.743 38.142,-77.459c24.38,-29.16 34.479,-35.357 52.014,-50.324l9.046,-7.468c2.778,-1.272 47.276,-21.642 37.975,4.004c-2.168,5.978 -22.03,-14.946 -59.385,52.844c-6.281,8.102 -5.024,7.393 -6.742,17.045c-11.011,12.718 -41.781,88.501 -45.29,170.748c-4.189,21.276 -4.291,21.119 -4.524,22.978c-1.789,14.29 0.743,13.635 -1.097,28.329l-0.704,22.868c25.835,153.952 13.649,156.882 54.584,252.141c21.808,50.549 24.988,66.825 26.176,72.907c4.525,8.11 9.051,16.221 13.576,24.331c32.821,68.534 39.976,70.346 28.817,88.746c-66.704,109.986 -234.872,280.658 -257.202,303.32c-5.034,4.185 -10.068,8.371 -15.101,12.556c-56.615,66.153 -189.706,162.837 -207.29,175.611c-6.598,4.927 -7.236,3.606 -10.683,10.768c-5.141,3.577 -44.315,30.834 -63.786,45.391c-1.605,1.896 -3.21,3.792 -4.814,5.688c-50.656,37.981 -50.885,35.95 -109.053,74.526c-2.014,1.739 -4.029,3.479 -6.043,5.218c-30.998,26.173 -39.79,45.975 -41.853,25.216c-1.999,-20.115 0.977,-19.541 -5.067,-39.239c3.398,-7.016 2.437,-6.857 7.917,-12.357c1.962,-3.65 3.925,-7.3 5.887,-10.95c0.456,-9.434 0.913,-18.868 1.369,-28.303c5.182,-20.61 3.197,-19.629 5.231,-68.746c-0.328,-5.9 -1.919,-34.489 2.918,-73.81c0.247,-5.93 0.493,-11.861 0.74,-17.791c-7.909,-90.925 -4.875,-204.772 -4.4,-222.575c-0.535,-49.944 -5.004,-58.488 -7.355,-62.984c1.714,-29.383 2.843,-28.672 -1.65,-57.363c-2.102,-31.136 -2.016,-30.201 -3.793,-61.995l-5.421,-11.789c-1.101,-117.245 -28.234,-226.333 -26.777,-268.582c-1.361,-11.583 -2.721,-23.167 -4.082,-34.75c-6.2,-63.934 -7.894,-62.57 -7.904,-68.051l-1.391,-22.747l-2.087,-6.353l-3.866,-10.222c0.751,-4.028 1.503,-8.055 2.254,-12.083c-7.284,-32.946 -12.454,-78.629 -13.232,-85.507c-4.234,-37.415 -1.292,-36.533 -5.847,-73.994c-0.88,-5.186 -14.94,-24.143 17.913,-41.35c26.159,-14.708 25.659,-12.722 52.178,-27.991c25.637,-18.724 25.437,-17.542 52.556,-32.403c30.065,-20.736 42.723,-26.031 46.732,-27.708c3.183,-2.59 6.365,-5.18 9.548,-7.771c18.183,-8.659 17.342,-8.838 18.895,-9.509c3.207,-2.575 6.414,-5.151 9.622,-7.726c4.735,-2.487 38.479,-20.211 58.353,-32.616c9.729,-4.575 9.479,-2.983 16.631,-10.459c65.541,-33.59 121.76,-68.764 132.068,-75.212c9.304,-5.726 18.608,-11.452 27.912,-17.178c50.811,-31.843 196.959,-108.995 215.59,-128.364c18.505,-5.726 17.162,-6.38 34.173,-17.257c51.795,-43.021 53.537,-41.034 89.626,-97.226c24.003,-37.788 24.109,-77.257 24.128,-84.269Z" style="fill:#fefefe;"/><path d="M2170.731,2792.369c1.54,-0.55 99.114,-18.827 17.549,10.495c-59.739,21.475 -57.344,23.856 -115.479,48.455c-15.404,10.525 -20.35,2.033 -198.457,122.472c-18.845,11.794 -17.978,11.363 -35.712,26.239c-23.589,17.779 -21.598,18.932 -44.522,36.467c-26.981,19.259 -22.872,23.196 -50.469,40.71c-34.947,18.706 -54.244,44.215 -29.875,32.532c3.338,-1.6 2.956,-1.736 39.903,-23.431c30.747,-14.417 27.593,-18.149 58.798,-30.799c7.312,-2.324 6.629,-2.434 16.77,-6.958c3.534,-1.505 7.068,-3.01 10.602,-4.515c16.41,-9.992 25.476,-13.254 27.824,-14.099c8.894,-4.987 8.474,-3.675 18.008,-9.152l12.298,-5.468c20.585,-9.141 82.843,-33.424 90.079,-36.247c6.731,-2.23 5.144,-2.968 11.642,-5.121c1.37,-0.454 1.285,-0.367 17.352,-4.959l11.53,-4.865c26.697,-9.461 53.395,-18.923 80.092,-28.384c29.679,-7.437 28.031,-9.561 58.203,-17.083c3.198,-1.693 6.395,-3.385 9.593,-5.078c26.097,-5.532 25.228,-5.049 51.321,-9.631l6.476,-2.378c5.934,-1.119 4.499,-2.348 10.642,-3.506c1.43,-0.27 1.336,-0.171 18.038,-2.304c5.943,-0.847 5.223,-2.019 73.938,-12.813c33.65,-3.187 46.923,-6 50.946,-6.853c6.153,-0.015 5,-1.138 11.374,-1.153c1.377,-0.003 -0,0 17.193,0.755l22.4,-1.871c4.147,0.306 42.598,3.139 51.949,1.802l5.591,0.693c1.225,0.164 52.13,6.36 56.663,6.912c9.687,1.129 105.238,13.22 68.441,25.657c-14.251,4.817 -15.38,-20.334 -187.9,7.397c-84.19,17.621 -83.843,17.607 -91.278,17.896l-6.682,1.941c-31.383,10.043 -100.16,26.92 -108.918,29.07c-11.219,3.46 -9.801,4.287 -21.65,7.941c-1.388,0.428 -1.297,0.357 -17.511,4.819c-20.463,7.096 -19.525,6.84 -39.212,14.218c-4.221,1.553 -40.524,14.912 -53.208,18.166c-5.229,2.878 -10.458,5.757 -15.686,8.635l-22.687,6.253c-9.268,4.385 -18.535,8.77 -27.803,13.154c-5.507,2.966 -54.796,22.27 -59.585,24.146c-7.561,3.794 -15.122,7.588 -22.682,11.382c-7.134,2.682 -14.268,5.365 -21.402,8.047c-13.316,5.785 -26.632,11.57 -39.948,17.355c-6.09,2.889 -12.181,5.779 -18.271,8.668l-11.898,6.005c-8.388,4.166 -8.978,2.505 -106.436,48.762c-1.919,0.767 -12,4.798 -22.574,12.549c-65.198,31.366 -65.346,29.54 -128.165,64.394c-9.018,4.415 -18.037,8.83 -27.055,13.245l-7.396,4.03c-4.254,2.961 -4.22,1.244 -8.331,4.107c-0.542,0.377 -0,-0 -6.124,5.528c-4.537,2.398 -9.074,4.796 -13.611,7.194c-11.206,6.076 -22.412,12.152 -33.617,18.228c-20.833,10.343 -20.928,7.979 -39.323,24.016c-3.886,1.85 -27.628,13.152 -47.118,25.966c-7.436,4.203 -14.871,8.407 -22.307,12.61l-27.877,18.169c-5.687,3.856 -11.375,7.713 -17.062,11.569c-4.323,3.491 -8.646,6.983 -12.969,10.474c-8.928,4.378 -9.204,2.847 -16.427,10.277c-9.952,5.212 -9.472,4.471 -18.144,10.895c-29.706,19.282 -28.472,19.116 -57.546,40.779c-28.235,14.916 -319.446,245.793 -322.366,253.895c-2.676,0.905 -5.353,1.809 -8.029,2.714c-9.583,10.235 -37.542,31.864 -40.928,34.484c-16.39,11.3 -21.763,7.036 -25.391,26.51c-9.186,1.659 -27.531,13.79 -29.763,15.266c-6.274,5.026 -12.548,10.052 -18.822,15.078c-23.517,20.001 -18.297,24.794 -20.887,24.751c-20.084,-0.335 -15.717,9.061 -33.991,16.529c-57.834,23.633 11.122,-15.701 43.115,-68.75c26.642,-44.178 32.658,-38.655 47.478,-62.065c36.804,-58.137 132.112,-155.044 151.194,-187.025c10.157,-6.442 9.813,-5.552 18.198,-14.965c18.647,-22.352 97.775,-117.198 250.369,-264.023c5.462,-4.053 5.136,-4.147 62.779,-57.328c6.491,-13.164 34.595,-32.635 128.596,-122.216c3.954,-2.83 16.788,-12.015 46.145,-39.56c6.437,-4.917 12.875,-9.834 19.312,-14.75c3.669,-3.267 30.857,-27.475 45.776,-40.943c10.863,-6.977 10.376,-5.481 19.756,-14.784c11.299,-10.373 76.908,-56.701 91.078,-73.532c11.503,-0.782 11.111,-0.433 18.69,-9.332c25.52,-15.54 26.612,-13.288 46.917,-34.356c3.547,-2.272 7.094,-4.545 10.64,-6.817c1.082,1.843 12.21,20.801 12.016,23.852c-0.038,0.6 -0.292,4.605 -6.845,3.112c-34.17,-7.789 -18.857,22.384 -139.982,135.985c-22.064,23.051 -21.214,22.055 -38.8,40.697c-18.585,17.909 -37.171,35.818 -55.756,53.726c-6.17,7.49 -12.34,14.98 -18.511,22.47c-6.928,6.081 -13.857,12.163 -20.785,18.244c-26.344,26.39 -24.893,26.478 -53.016,49.959c-56.257,56.535 -133.757,119.087 -68.457,72.823c71.681,-50.786 86.598,-70.284 92.478,-77.97c32.76,-18.787 32.093,-18.065 39.479,-23.12c6.173,-3.302 12.346,-6.605 18.519,-9.907c8.247,-9.695 8.787,-7.832 16.467,-16.813c27.331,-15.704 26.742,-14.484 52.228,-33.792c1.698,-1.561 15.245,-14.013 20.753,-20.012c11.044,-2.337 10.017,-2.713 19.478,-7.858c27.499,-26.998 52.642,-37.889 57.808,-40.127c86.094,-68.319 267.181,-163.963 302.356,-177.379c16.811,-6.955 15.882,-6.429 32.554,-13.778c39.915,-13.446 38.963,-14.036 79.666,-24.173c5.208,-2.211 9.367,-3.976 68.931,-15.816l5.837,-0.373c2.702,-0.549 0.821,-2.297 4.404,-3.024c0.55,-0.112 0,0 7.02,0.088Z" style="fill:#fff;"/><path d="M2342.237,3078.767l22.705,-2.828c12.127,3.515 11.996,3.04 23.463,-2.254l22.273,2.144c4.993,0.729 3.929,-0.286 62.843,5.435c89.488,-2.039 87.364,9.808 177.099,17.471c20.978,8.626 21.012,4.891 34.089,6.175c5.381,1.037 363.545,77.887 63.215,26.39c-3.212,-0.551 -2.975,-0.504 -40.16,-6.801l-5.715,-0.878c-34.524,-0.753 -33.871,-4.701 -68.336,0.578l-23.23,0.132c-45.794,0.045 -44.79,-1.222 -91.282,-2.669l-34.247,1.255l-23.285,2.058c-65.03,5.388 -168.465,21.887 -183.052,24.213l-16.43,3.216c-150.142,34.806 -148.461,36.936 -296.966,78.122c-1.823,0.506 -1.71,0.38 -23.087,5.136l-34.002,12.059l-34.314,11.454l-11.506,5.412c-76.699,28.769 -84.399,31.08 -91.888,33.328l-27.76,14.821c-3.557,1.446 -2.584,0.201 -44.977,16.738c-5.685,2.839 -3.618,4.068 -9.119,6.816c-2.492,1.244 -2.361,1.038 -31.872,14.007c-56.012,30.014 -57.713,24.489 -114.013,57.723c-3.376,1.529 -2.516,1.441 -41.671,20.243c-14.563,6.524 -13.625,5.977 -27.069,13.534c-32.556,19.929 -62.772,32.508 -75.693,44.539c-7.603,1.361 -10.223,1.83 -85.583,44.696c-2.335,2.395 -2.179,2.235 -35.136,22.664c-12.265,5.972 -11.107,5.319 -20.854,13.362c-5.297,2.786 -51.512,27.089 -64.79,37.401l-26.09,14.719c-10.448,6.645 -10.442,5.311 -18.406,14.149c-5.775,2.989 -5.182,2.83 -44.114,26.162c-1.502,0.707 -1.159,0.835 -17.934,10.446c-1.235,0.922 -1.249,0.858 -63.74,38.425c-9.648,10.011 -10.737,8.179 -15.199,21.704c-12.808,-1.403 -22.856,9.049 -25.146,-14.921c21.445,-19.538 38.373,-18.921 94.461,-77.349c54.137,-54.088 130.92,-115.927 155.377,-130.41c0.968,-0.646 0.292,-0.023 8.311,-10.275c24.617,-9.703 47.972,-32.32 102.489,-67.514c14.291,-9.495 13.848,-8.204 25.022,-21.114l2.586,-2.559c12.374,-3.275 38.962,-10.311 140.547,-76.469c17.289,-8.336 16.022,-8.644 33.446,-16.906c2.565,-2.359 7.965,-7.326 39.214,-18.955c28.144,-14.191 28.874,-11.896 44.967,-25.117c57.94,-26.661 57.505,-24.334 114.49,-50.193c16.551,-6.5 15.544,-6.386 51.612,-22.229c73.223,-27.224 72.134,-27.458 103.383,-37.599c1.445,-0.439 0.747,-0.785 17.56,-6.913l10.175,-3.64l45.333,-10.835l11.806,-5.674l80.791,-18.479c4.064,-0.679 27.744,-4.636 50.668,-9.208c7.934,-3.005 6.537,-3.146 11.493,-10.706c30.657,7.877 66.953,-8.845 217.248,-14.233Z" style="fill:#fff;"/><path d="M846.837,513.156c5.672,-1.543 10.385,-2.826 72.966,8.689c103.552,9.024 103.037,8.481 205.114,31.681l5.647,-0.915c78.16,34.986 85.003,13.346 251.681,90.404c89.693,41.466 203.943,88.556 108.904,60.059c-20.038,-6.008 -121.153,-43.437 -131.649,-47.322c-0.886,-0.305 -11.074,-3.817 -11.074,-3.817c-9.396,-2.239 -8.511,-1.203 -16.687,-5.539c-33.834,-10.207 -34.207,-6.241 -68.411,-17.202c-52.366,-12.275 -52.306,-8.719 -103.21,-23.297c-9.579,-1.468 -19.158,-2.935 -28.736,-4.403c-3.932,-1.309 -7.865,-2.618 -11.797,-3.928c-132.328,-18.039 -183.791,-17.97 -199.843,-17.948c-11.456,0.464 -31.369,0.821 -34.097,0.87c-0.855,-0.09 -0.06,-0.07 -29.134,0.984c-31.194,-2.021 -46.981,-4.897 -51.021,-5.633c-47.854,-8.717 -73.902,8.008 -57.066,9.526c15.109,1.362 140.431,12.659 188.143,23.66c17.542,4.431 16.572,3.772 33.814,6.076c0.823,0.213 0.939,1.632 1.762,1.845c1.266,0.327 0,0 16.044,3.126c4.161,1.224 34.519,10.15 51.457,17.077c26.431,7.122 26.173,5.794 51.206,17.501c5.378,2.319 10.756,4.638 16.133,6.957c39.083,16.2 37.857,15.878 74.744,34.396c17.633,8.362 23.891,4.65 23.382,23.96c-25.219,-8.897 -24.383,-9.544 -51.026,-11.854c-5.261,-4.561 -4.783,-3.268 -12.276,-6.331c-20.721,-0.021 -120.263,-26.751 -130.609,-29.529c-4.934,1.767 -17.466,1.9 -4.669,9.323c58.796,23.573 79.728,53.389 130.431,69.277c4.079,1.278 254.309,108.18 33.993,41.232c-17.84,-3.975 -52.113,-12.197 -56.638,-13.283c-14.114,-2.888 -42.289,-9.868 -45.954,-10.776c-3.871,-1.581 -7.742,-3.162 -11.613,-4.743c-7.656,-1.566 -15.313,-3.132 -22.969,-4.698c-2.698,-0.707 -1.568,0.35 -34.086,-7.342c-58.838,-17.47 -59.255,-11.693 -118.323,-31.119c-13.293,-1.771 -33.076,-8.022 -35.897,-8.914c-7.551,-2.064 -15.101,-4.128 -22.652,-6.192c-23.154,-4.98 -52.889,-14.88 -57.421,-16.39c-5.669,-1.869 -11.337,-3.738 -17.006,-5.608c-5.707,-2.087 -11.413,-4.173 -17.12,-6.26c-6.616,-0.699 -22.002,-2.324 -79.947,-22.875c-7.216,-2.554 -14.432,-5.108 -21.648,-7.663c-5.626,-1.44 -69.78,-24.098 -70.514,-24.338c-60.038,-23.216 -72.161,-25.145 -78.715,-26.189c-12.353,-4.353 -19.834,-4.954 -11.138,-15.255c1.847,-2.188 3.21,-3.802 33.31,-13.095c3.696,-0.81 33.649,-7.372 45.78,-11.88c24.437,-6.535 33.501,-3.223 51.868,-8.236c40.299,-11.59 40.388,-7.662 80.604,-17.179c45.352,-5.487 44.467,-9.545 90.367,-7.498c62.444,-3.432 63.709,1.231 75.6,-9.394Z" style="fill:#fefefe;"/><path d="M93.853,1798.084c0.965,-40.626 7.539,-39.931 10.439,-38.583c1.999,0.93 7.033,34.318 7.487,37.33c23.672,157.012 159.214,125.125 134.409,171.215c-27.799,51.652 -10.253,54.051 17.891,222.433c0.906,23.142 4.552,21.975 5.558,45.699l4.768,11.507c6.411,51.156 24.926,118.397 34.006,194.268l3.06,17.318c3.589,19.605 38.577,210.738 42.71,245.444c1.119,5.859 2.239,11.718 3.358,17.577c11.902,66.413 24.843,112.783 48.535,250.835c7.752,16.09 6.952,15.857 7.681,17.174c0.667,67.559 39.484,133.958 26.246,137.271c-3.292,0.824 -130.906,-122.22 -141.336,-133.687c-32.811,-49.884 -41.191,-43.513 -68.243,-96.721c-5.563,-8.595 -4.302,-8.205 -12.231,-16.142c-0.435,-1.47 -2.537,-2.038 -2.972,-3.508c-4.252,-14.377 -6.236,-12.024 -11.91,-24.599c0.313,-9.378 0.625,-18.757 0.938,-28.135c-1.365,-3.863 -2.73,-7.725 -4.095,-11.588l-0.157,-11.374c-8.82,-69.102 -19.272,-68.865 -5.163,-136.816l11.344,-6.279l2.16,11.036c-0.003,15.423 -2.078,14.651 3.33,29.16c1.675,7.692 3.35,15.384 5.025,23.077c17.722,54.58 20.329,52.68 44.094,104.555c9.845,17.226 9.057,16.181 16.889,33.911c1.951,3.629 3.901,7.258 5.852,10.886c19.895,16.657 16.397,18.016 28.601,40.406c7.854,11.057 7.347,11.039 35.821,57.441c1.713,6.01 -0.244,9.993 6.224,6.949c8.551,-4.024 3.451,-5.835 0.962,-14.455c-22.832,-41.06 -21.543,-50.953 -20.929,-55.671c0.376,-3.702 2.043,-20.114 -4.881,-46.253c-8.424,-40.18 -7.95,-39.844 -10.298,-46.455c-0.92,-6.398 0.626,-25.058 -10.222,-51.575c-0.893,-6.38 -8.898,-63.577 -12.704,-79.516c-4.003,-11.413 -8.581,-32.68 -9.2,-35.552c0.087,-14.298 -0.188,-13.533 -1.538,-27.666c-8.486,-28.582 -6.291,-28.731 -18.293,-113.817c-6.39,-21.93 -9.905,-60.617 -13.426,-71.019c-15.982,-99.742 -23.427,-176.342 -53.657,-300.671c-1.001,-4.127 -2.003,-8.254 -3.004,-12.382l0.887,-4.097c-1.059,-2.667 -7.204,-18.143 -7.652,-35.043c-1.13,-11.238 -2.26,-22.476 -3.39,-33.714c-5.027,-28.723 0.139,-32.998 -24.955,-47.724c-7.647,-3.527 -47.481,-21.901 -77.119,-71.659c-3.875,-6.067 -7.751,-12.133 -11.626,-18.2l0.609,-28.543c0.326,-44.101 5.142,-42.143 20.115,-84.048Z" style="fill:#fff;"/><path d="M651.515,15.149c191.955,-40.187 384.871,11.328 417.15,19.947c5.643,2.286 11.286,4.571 16.93,6.857c197.738,57.422 187.73,81.031 377.447,159.589c14.08,5.83 13.744,23.409 -0.309,17.42c-14.033,-5.98 -11.92,-10.251 -34.874,-11.602c-3.405,-1.889 -6.81,-3.777 -10.215,-5.666c-9.861,-5.295 -19.723,-10.591 -29.584,-15.886c-5.553,-2.262 -11.107,-4.525 -16.66,-6.787c-19.185,-5.129 -44.452,-16.484 -68.939,-16.232c-3.707,-6.369 -8.742,-15.019 -85.92,-33.217c-72.828,-16.548 -75.766,-7.788 -78.65,-13.484c-3.685,-7.279 -8.887,-17.556 -98.15,-27.686c-21.997,-8.699 -86.884,-11.839 -148.546,-22.694c-31.821,-5.292 -278.871,-20.033 -165.236,-1.983c29.019,4.609 28.861,0.916 56.975,6.754c28.962,6.014 28.02,4.361 56.88,10.532c5.25,1.223 10.499,2.446 15.749,3.669c2.285,1.492 4.57,2.984 6.855,4.476c17.613,5.04 16.177,5.109 34.429,8.444c3.415,1.046 6.83,2.093 10.245,3.139c37.65,30.341 -30.254,10.055 -32.872,9.272l-5.334,-0.007c-15.96,1.998 -113.043,3.655 -121.008,5.463c-74.826,16.99 -226.725,10.668 -250.679,13.9c-3.576,1.537 -16.606,7.136 -45.965,15.957l-6.436,4.044c-35.226,19.291 -115.529,53.588 -202.47,146.205c-2.78,3.071 -5.559,6.142 -8.339,9.213c-35.317,22.387 -75.22,81.668 -83.242,92.619c-2.659,3.616 -5.318,7.233 -7.977,10.849c-11.599,14.166 -10.511,13.655 -16.157,29.959c-10.78,3.291 -33.214,56.203 -35.429,61.426c-0.667,1.573 -46.978,101.085 -18.3,10.999c32.185,-101.106 64.836,-127.827 84.708,-172.042c15.152,-12.869 12.686,-13.98 23.524,-29.952c52.589,-72.081 57.772,-66.257 125.275,-125.559c4.943,-4.191 9.887,-8.383 14.83,-12.574c22.576,-16.203 183.561,-131.743 312.888,-150.853c5.802,-1.503 11.605,-3.006 17.407,-4.51Z" style="fill:#fff;"/><path d="M302.093,363.429c5.169,11.408 10.339,22.816 15.508,34.224c3.999,9.419 27.44,64.631 27.271,124.962c-0.189,67.335 -4.46,74.456 -7.766,79.968c-6.587,22.587 -6.363,21.628 -6.533,22.68c-6.521,5.485 -5.635,4.979 -11.24,11.422c-7.08,28.302 13.795,1.795 17.403,-0.989c1.89,-1.339 18.947,-13.42 22.742,-17.916c10.254,-3.819 9.207,-3.266 18.225,-8.826c12.776,-0.5 14.869,-1.69 15.993,-2.329c27.32,-15.538 17.976,10.529 12.601,13.899c-35.528,50.62 -99.892,127.09 -143.427,164.874c-6.008,6.804 -12.016,13.609 -18.024,20.413c-6.813,6.563 -6.228,5.908 -12.559,12.097c-1.146,1.121 -0.871,0.099 -14.989,13.3c-5.856,5.555 -11.713,11.109 -17.569,16.664c-24.344,32.607 -30.6,25.682 -57.209,56.328c-84.954,56.487 -76.486,102.729 -83.421,79.714c-16.84,-55.889 68.459,-114.781 88.823,-186.851c-1.691,-18.578 -1.926,-17.334 -9.413,-34.064c-5.374,-53.441 -8.556,-52.005 -22.364,-104.696c-2.446,-1.522 -4.891,-3.044 -7.337,-4.566c0.108,-0.167 -5.008,-17.113 23.632,-19.232c33.792,25.046 30.763,37.468 41.128,87.393l2.249,12.251l1.966,5.566c-1.386,7.51 -2.771,15.02 -4.157,22.53c3.582,9.044 6.508,7.133 13.182,-0.922c30.928,-64.815 -0.454,-67.457 2.944,-96.003c0.159,-1.333 0,0 2.809,-16.54c1.739,-13.159 0.906,-12.833 -6.695,-23.803c-5.579,-37.715 -12.233,-35.74 -15.8,-73.324l-6.572,-10.969c-3.426,-2.716 -48.879,-38.746 25.177,-48.497c6.864,5.129 7.087,3.185 14.321,8.85c22.444,42.153 16.253,44.155 20.298,55.746l4.256,11.937c9.727,47.276 7.43,46.469 13.807,107.706c-0.266,1.871 -5.766,40.484 8.804,21.92c19.931,-25.394 6.703,-26.715 6.102,-27.941c8.567,-6.108 11.607,-8.275 10.939,-131.063c22.769,-15.939 23.607,-19.087 16.363,-34.28c0.448,-11.263 0.897,-22.526 1.345,-33.788c-5.832,-28.509 -14.583,-52.777 -16.198,-57.255c-7.328,-15.636 -6.16,-14.899 -7.328,-15.636c-27.901,-17.6 4.617,-58.826 40.714,-34.953Z" style="fill:#fff;"/><path d="M1782.563,1511.211c1.799,0.045 11.121,0.276 22.488,-0.298c-0.167,5.572 -0.335,11.143 -0.502,16.715l-3.965,2.678c-21.97,-1.184 -29.104,11.378 -48.709,30.074c-12.541,6.488 -12.753,4.925 -22.202,16.668c-218.901,201.572 -220.321,205.521 -229.112,229.957c-6.142,17.074 -5.946,16.172 -8.45,35.074l3.739,11.769c0.208,11.336 0.416,22.672 0.625,34.008c1.343,34.499 -0.429,33.834 6.083,68.536c0.037,13.326 0.074,26.651 0.111,39.977l0.127,5.722c1.431,31.055 16.148,350.383 12.635,388.396c3.274,6.549 3.469,6.939 0.039,91.522l-5.378,11.842c-0.702,29.503 1.265,28.636 -3.277,44.979c-1.09,3.928 -2.179,7.856 -3.269,11.784c-0.635,15.095 -1.271,30.19 -1.906,45.285l-1.549,5.41c-3.421,259.967 -38.172,-320.114 -38.242,-330.704c-6.26,-127.572 -50.878,-500.123 -34.52,-504.75c14.441,-4.085 10.635,-10.414 152.48,-109.284c2.901,-2.627 5.802,-5.254 8.702,-7.881c11.556,-8.597 10.683,-9.249 69.097,-49.652c32.423,-32.177 39.02,-22.648 120.244,-81.658l4.71,-6.168Z" style="fill:#fff;"/><path d="M1644.798,3462.53c11.765,-4.784 104.954,-51.481 84.894,-21.029c-3.881,5.891 -7.289,-1.565 -78.334,40.483c-5.89,3.763 -5.601,1.709 -11.702,5.607c-0.881,0.563 0,0 -10.41,7.899c-9.259,6.235 -63.81,42.967 -117.339,75.507c-9.27,5.016 -8.852,3.878 -16.168,10.926c-6.244,3.994 -12.488,7.987 -18.733,11.981c-14.317,7.962 -13.484,8.02 -26.795,17.374c-122.07,90.53 -120.528,90.841 -142.414,104.146c-6.238,5.373 -5.847,4.861 -11.213,11.111c-14.84,12.648 -152.184,129.699 -187.393,155.856c-4.142,3.077 -27.014,20.068 -46.209,45.001c0,0 -6.862,4.561 -6.862,4.561c-1.808,1.445 -6.767,5.409 -20.486,20.432c-11.486,11.247 -10.511,10.949 -24.127,20.783c-13.91,13.423 -14.413,11.64 -18.415,20.486c-20.873,20.706 -19.5,20.393 -38.882,42.109c-10.513,8.683 -9.91,8.273 -16.823,19.225c-18.98,9.706 -30.364,25.301 -54.15,46.568l-3.542,7.544c-51.243,40.805 -107.611,99.864 -68.37,46.562c2.474,-3.36 11.703,-30.84 12.616,-33.559c40.177,-65.553 25.52,-80.811 206.46,-262.539c8.21,-3.453 6.758,-3.732 12.442,-9.499c28.054,-34.895 87.718,-80.546 95.939,-86.837c3.247,-2.333 6.494,-4.667 9.742,-7c36.914,-31.17 178.619,-136.789 286.439,-192.533c22.086,-15.666 21.85,-13.564 51.653,-28.772c26.833,-11.321 25.536,-11.057 49.887,-25.367c41.901,-17.808 41.489,-17.403 47.097,-20.348c18.191,-8.214 39.04,-13.082 61.198,-26.677Z" style="fill:#fff;"/><path d="M730.454,2872.102c3.268,2.065 6.537,4.131 9.805,6.196c45.022,25.255 33.19,35.071 56.097,82.394c3.317,6.853 1.866,5.963 3.869,12.362l5.518,11.458c28.573,64.946 34.159,70.671 38.906,75.536c1.591,5.484 3.182,10.969 4.773,16.453l16.464,35.025l6.371,10.991c3.358,5.86 2.887,5.985 40.224,74.228c33.169,60.626 33.778,64.075 63.845,69.548c46.026,8.379 -37.43,21.69 -73.9,-18.676c-7.685,-8.506 -8.14,-7.076 -22.988,-16.632c-0.505,-0.779 -28.2,-27.035 -10.42,5.111c0.149,15.7 -0.698,14.636 4.803,28.423c0.694,14.753 6.737,143.136 -13.467,184.121c-14.004,-2.523 -24.052,-1.404 -14.62,-12.587c4.153,-4.924 12.11,-14.358 -12.814,-79.49c-6.624,-16.122 -6.452,-15.105 -13.78,-30.046c-14.069,-37.66 -76.635,-226.637 -77.291,-256.106l-4.983,-11.508c-31.227,-150.29 -87.717,-261.631 -6.413,-186.802Z" style="fill:#fefefe;"/><path d="M481.71,3391.279c2.539,-2.632 38.185,-39.584 41.951,-18.147c3.894,22.168 -11.49,5.68 -13.43,7.319c-40.841,34.507 -61.958,134.274 -64.615,146.829c12.481,50.525 4.767,61.585 170.413,179.388c1.402,0.802 0.833,0.871 16.876,11.091c31.211,15.727 73.13,26.62 67.867,54.285c-3.244,17.053 -9.002,3.304 -21.668,-8.014c-3.259,-2.912 -56.574,-5.251 -61.509,-5.467c-4.528,-1.204 -1.519,-4.86 -6.573,-6.204c-3.131,-0.833 -2.954,-0.526 -39.876,-7.096c-1.363,-0.54 -1.107,-0.207 -17.345,-5.905c-14.768,-13.942 -14.906,-13.956 -16.644,-14.127c-14.016,-1.379 -3.58,6.279 5.93,24.691c3.879,5.269 3.191,4.629 14.806,23.903c20.208,21.387 38.494,65.187 106.993,128.579c52.056,48.175 -17.58,6.011 -18.923,5.198c-14.981,-13.754 -12.905,-14.43 -29.764,-25.368c-40.435,-27.973 -38.248,-29.329 -88.704,-71.976c-18.282,-15.321 -32.871,-29.433 -35.628,-32.101c-15.465,-10.724 -93.307,-92.608 -105.295,-170.538c0.116,-16.226 0.922,-15.346 -5.383,-29.311c9.325,-77.857 5.389,-80.233 53.569,-142.302c8.814,-9.531 8.148,-8.348 15.845,-18.021l4.124,-6.382c2.736,-3.149 5.473,-6.297 8.209,-9.446c9.929,-4.736 9.512,-2.852 18.773,-10.876Z" style="fill:#fff;"/><path d="M1285.154,3110.191c-1.758,2.082 -13.564,10.798 -17.044,22.646c-23.017,15.566 -43.203,51.235 -79.765,80.378l-1.455,3.277c-29.849,34.022 -36.76,38.644 -40.608,41.216c-3.798,5.328 -4.27,3.569 -8.15,9.104c-33.998,35.226 -34.166,34.139 -36.81,37.4c-5.567,5.922 -5.25,4.786 -9.392,12.718c-18.517,18.933 -77.694,74.835 -79.393,79.827c-6.203,7.273 -6.358,6.176 -7.194,10.205c-45.403,21.485 -160.591,179.718 -285.201,246.601c-0.74,0.382 -0.028,0.084 -18.518,6.542c-5.084,-8.418 -3.08,-8.634 3.509,-16.475c3.606,-2.135 28.96,-17.146 33.38,-40.378c2.832,-2.752 2.491,-1.854 5.543,-5.386c111.639,-129.195 112.924,-131.35 120.633,-144.269c4.902,-1.58 9.045,-2.916 46.003,-45.036c3.818,-3.28 7.637,-6.56 11.455,-9.84c3.973,-3.77 7.945,-7.54 11.918,-11.31c121.33,-113.682 119.973,-113.552 245.061,-223.85c16.867,-9.108 17.195,-7.24 30.729,-21.301c6.427,-4.926 75.242,-57.666 79.955,-62.071c97.43,-91.08 -3.031,28.195 -4.655,30.001Z" style="fill:#fff;"/><path d="M618.743,2949.388l-0.922,18.063c1.68,5.708 3.36,11.415 5.04,17.123c8.627,56.9 5.57,131.471 5.102,142.9c0.103,13.311 0.205,26.622 0.308,39.934c2.552,112.18 18.768,144.692 -62.642,148.823c-20.361,1.033 -90.408,44.892 -97.845,49.549c-5.108,2.958 -10.215,5.915 -15.323,8.873c0.142,-3.412 -7.799,-3.394 -7.657,-6.806c0.794,-19.08 134.229,-70.679 120.276,-79.925c-31.218,-20.688 -21.343,-29.02 -46.612,-57.564c-9.545,-37.491 -11.749,-35.721 -16.874,-74.279l-4.805,-11.445c-0.584,-4.089 -1.636,-11.455 4.352,-51.449c0.428,-1.441 3.192,-10.737 6.027,-17.797c1.759,-3.858 3.517,-7.716 5.276,-11.574c6.444,-14.785 0.702,-16.724 12.525,-28.3c9.591,-19.065 6.917,-20.638 23.164,-34.024c14.745,-11.63 12.442,-12.487 24.908,-26.235c22.973,-17.197 22.541,-16.926 23.034,-17.166c10.261,-7.278 10.444,-5.462 22.67,-8.7Z" style="fill:#fff;"/><path d="M816.248,158.338c1.841,5.258 3.682,10.517 5.522,15.775c0.923,3.617 1.845,7.233 2.768,10.85c-1.445,3.643 -2.89,7.286 -4.335,10.929c-0.986,2.284 -1.972,4.569 -2.958,6.853c1.312,45.963 -3.983,45.002 -5.864,91.375c0.83,13.725 -0.855,12.617 -9.885,171.591c-1.491,26.249 -38.652,24.198 -92.561,24.754l-6.029,-0.119c-9.642,-1.498 -8.852,-1.594 -16.852,-7.757c8.615,-15.652 10.296,-15.663 2.999,-31.067c2.18,-3.005 4.359,-6.01 6.539,-9.015c0.008,-7.546 0.017,-15.093 0.025,-22.639c4.701,-11.96 5.016,-26.606 5.066,-28.958c-0.063,-70.586 -3.248,-71.37 7.825,-91.029c4.084,-3.135 8.168,-6.27 12.252,-9.405c15.332,-4.036 17.379,-0.358 26.821,-13.665c6.159,-17.45 2.262,-16.512 -0.033,-23.178c2.221,-5.539 -2.116,-5.053 9.73,-73.962c6.559,-38.152 20.304,-26.737 58.97,-21.333Z" style="fill:#fff;"/><path d="M684.308,3103.258c34.166,-34.203 11.418,18.574 42.962,126.708c0.13,0.446 48.464,242.612 44.064,251.647c-3.434,7.051 -81.784,146.998 -87.165,132.386c-0.5,-1.357 -0.072,-1.337 -0.966,-18.046l2.068,-22.969c-0.216,-13.328 -0.432,-26.657 -0.649,-39.985c-1.088,-5.885 -2.176,-11.771 -3.263,-17.656c-0.477,-11.255 -0.953,-22.51 -1.43,-33.766c-1.964,-27.303 1.537,-26.991 -7.106,-45.764c0.181,-11.394 0.361,-22.788 0.542,-34.182l0.384,-5.718c0.103,-13.335 0.206,-26.669 0.309,-40.004l-1.071,-45.677c-0.26,-11.32 -0.519,-22.64 -0.779,-33.96c3.498,-11.43 10.604,-34.655 12.694,-148.88c1.416,-12.868 0.619,-11.941 -0.593,-24.134Z" style="fill:#fff;"/><path d="M571.829,176.748c79.047,-26.271 49.595,127.791 71.047,164.333c1.679,2.861 -5.431,105.751 -7.334,118.749c-0.563,10.841 3.144,40.197 -18.524,46.305c-26.641,3.909 -25.719,3.201 -51.184,11.823l-5.187,0.893c-6.745,2.652 -6.307,1.29 -12.249,6.213c-20.952,1.915 -39.267,6.46 -24.71,-9.062c0.568,-0.606 0.29,-0.122 5.885,-27.955c2.58,-12.835 7.817,-12.677 0.589,-28.613l7.143,-5.246c5.036,-34.43 5.127,-33.923 -1.675,-68.579l2.064,-17.196l5.204,-16.902c10.329,-4.214 54.801,-22.355 13.736,-138.77c3.753,-19.77 4.592,-18.887 15.195,-35.992Z" style="fill:#fff;"/><path d="M2118.628,1533.682c7.126,10.293 5.16,10.478 6.244,23.104c2.011,0.283 4.022,0.567 6.034,0.85l5.611,-0.953c17.341,3.023 15.942,2.862 17.341,3.023c9.144,1.048 10.727,-12.242 15.467,-2.373c6.826,14.211 9.942,9.692 27.931,18.265c8.374,5.454 7.535,5.62 21.624,18.458c3.001,2.726 6.002,5.451 9.003,8.177c3.174,4.687 6.347,9.374 9.521,14.061c10.336,19.802 9.734,19.516 10.683,21.157c31.56,60.204 23.781,77.596 25.787,96.148c0.976,3.956 1.952,7.913 2.928,11.869c7.46,19.59 2.855,29.496 2.899,33.844c0.844,13.374 1.689,26.748 2.533,40.123c3.822,23.665 4.058,22.597 2.785,45.567c5.456,36.95 5.488,36.704 5.893,39.906c0.78,6.172 -1.234,5.137 -0.428,11.52c1.32,14.93 0.32,14.586 7.658,28.393c1.063,6.902 11.067,71.864 17.582,85.502c1.384,4.995 0.541,4.171 -2.074,17.22c-20.573,-9.187 -44.996,-37.177 -101.531,-87.647c-8.857,-3.973 -8.219,-4.205 -25.48,-14.551c-0.114,-10.883 -1.521,-11.218 6.595,-19.531c0.336,0.547 -0.014,0.181 17.262,11.837l5.978,1.107c26.723,9.452 26.01,10.609 28.435,10.82c18.801,1.634 -0.634,-8.704 -2.035,-27.936c0.674,-7.456 1.348,-14.911 2.021,-22.367c-3.779,-75.677 -6.663,-89.03 -8.3,-96.613c2.827,-22.722 3.753,-29.86 -1.497,-63.838c-2.834,-11.359 -2.067,-10.149 -2.534,-22.204c-1.489,-3.879 -2.979,-7.757 -4.468,-11.636c-3.572,-12.661 -41.406,-146.743 -97.472,-132.438c-19.105,4.874 -19.192,2.028 -34.179,-10.097c9.791,-5.741 8.255,-6.338 11.461,-17.336l10.721,-11.428Z" style="fill:#fdfdfd;"/><path d="M132.204,2046.497c4.683,8.362 9.367,16.724 14.05,25.087c16.203,16.576 16.276,16.316 17.499,17.902c5.658,7.336 2.403,8.026 7.934,15.197c3.605,7.73 7.21,15.461 10.815,23.191c19.553,47.135 30.906,131.155 58.611,302.36c13.445,42.012 6.764,42.548 15.067,85.908c6.587,51.29 6.731,50.466 14.672,102.048c2.435,18.585 2.305,17.62 5.159,35.468c4.564,16.703 0.96,19.492 17.046,25.941c-16.892,13.772 4.559,63.51 -19.129,36.831c-1.085,-1.222 -43.002,-164.337 -53.978,-218.715l-6.67,-4.651c2.33,-23.891 -17.735,-96.543 -24.241,-131.288c-2.847,-26.791 -4.306,-25.675 -11.384,-51.396c-1.907,-15.571 -2.377,-14.845 -8.873,-28.498c-0.582,-8.694 -5.205,-77.763 -22.616,-106.55c1.095,-16.064 -0.19,-15.066 -3.109,-30.493c-1.012,-4.268 -2.024,-8.537 -3.036,-12.805c-1.102,-1.869 1.393,-1.19 0.149,-3.299c-0.32,-0.542 0,0 -4.568,-6.408c1.066,-24.51 0.768,-23.624 -8.215,-46.517c-5.764,-13.071 -26.737,-41.104 4.815,-29.313Z" style="fill:#fefefe;"/><path d="M1057.285,1272.686c74.393,-16.839 137.68,30.319 199.644,48.778c3.492,0.771 6.984,1.542 10.476,2.313l6.932,0.238c9.64,2.939 10.616,0.622 16.487,9.622c-7.904,22.274 -16.998,8.123 -91.154,6.011c-7.674,0.904 -15.347,1.808 -23.021,2.712c-80.366,13.399 -80.655,4.039 -160.239,19.021c-7.43,2.306 -14.86,4.611 -22.29,6.917c-23.636,4.887 -22.544,5.259 -45.622,12.849c-16.192,3.39 -16.077,3.428 -17.487,3.662c-5.971,0.989 -5.039,-0.368 -11.222,0.655c-5.711,1.844 -11.421,3.687 -17.132,5.531c-1.684,0.45 -77.472,17.729 -14.881,-15.919c1.756,-1.427 3.512,-2.853 5.268,-4.28c6.836,-8.626 6.46,-7.481 23.029,-23.978c4.283,-3.387 8.565,-6.775 12.848,-10.162c2.12,-3.353 4.24,-6.705 6.361,-10.058c11.838,-0.949 19.072,-1.149 41.847,-25.471c7.873,-3.497 15.745,-6.994 23.618,-10.491l16.763,-6.387l11.339,-4.948c2.214,-0.744 10.671,-3.589 28.436,-6.615Z" style="fill:#fff;"/><path d="M2176.338,2047.488c35.215,4.137 145.066,56.578 160.102,68.789c3.258,2.515 6.517,5.031 9.775,7.546c15.328,9.587 116.236,72.7 183.671,131.674c11.76,11.119 11.063,10.862 23.505,20.853c24.029,24.912 23.748,24.259 27.904,29.435l5.471,5.441c7.813,7.521 15.626,15.041 23.44,22.562c22.021,18.783 21.303,18.205 46.088,33.9c2.277,2.281 27.955,28.015 28.705,28.268c2.489,0.842 3.223,-6.272 5.712,-5.431c8.037,-0.343 6.808,-0.954 11.785,-5.964c3.606,2.327 1.4,9.535 5.006,11.863c8.714,5.624 19.697,6.533 29.355,10.312c8.319,3.255 -7.546,15.086 60.001,94.167c-1.025,0.013 -0.573,0.983 -12.657,1.99c-113.513,-124.118 -208.603,-162.785 -246.933,-200.493c-15.533,-10.405 -14.799,-9.97 -30.076,-19.748c-8.929,-5.148 -83.205,-47.97 -107.01,-71.74c-48.627,-33.983 -47.736,-33.796 -56.653,-38.982c-25.873,-18.588 -29.447,-17.491 -64.229,-44.186c-8.805,-6.448 -17.61,-12.896 -26.415,-19.345c-3.485,-3.032 -5.303,-4.614 -47.013,-33.518l-11.344,-6.084c-7.137,-2.786 -8.702,1.454 -17.75,-9.785l-0.44,-11.525Z" style="fill:#fcfcfc;"/><path d="M382.16,271.209c1.129,-13.752 50.397,-53.401 64.768,5.519c21.042,86.274 39.212,85.193 23.004,257.557c-1.453,15.456 -22.647,14.919 -34.823,24.653c-3.786,1.924 -61.644,31.321 -52.98,3.395c18.026,-58.104 9.782,-58.591 9.158,-119.374l4.439,-5.019c2.249,-1.528 4.499,-3.057 6.748,-4.585c2.995,-2.7 12.443,1.078 7.275,-25.178c0.61,-9.462 1.221,-18.924 1.831,-28.386c-1.473,-17.973 0.448,-17.708 -7.484,-34.09c-0.466,-6.143 -0.932,-12.285 -1.398,-18.428l-6.731,-16.617c-16.991,-35.356 -13.29,-36.241 -13.808,-39.446Z" style="fill:#fff;"/><path d="M947.511,213.783c21.276,-47.773 16.445,-48.922 17.421,-51.402c1.992,-5.064 59.817,-6.384 53.8,29.238c-2.163,12.806 -17.977,106.428 -28.943,159.743c-1.814,3.925 -3.627,7.849 -5.441,11.774c-4.84,49.248 -9.417,48.021 -11.326,96.755c-18.125,29.316 -17.522,29.246 -19.29,31.624l-5.743,1.072c-28.421,-20.628 -64.513,4.395 -48.215,-27.826c3.547,-7.013 -1.16,-8.224 20.995,-95.963c1.039,-5.884 2.078,-11.768 3.116,-17.651c15.543,-74.201 15.905,-94.305 16.055,-102.613c7.586,-13.431 5.87,-13.143 7.934,-28.693l-0.361,-6.059Z" style="fill:#fff;"/><path d="M1867.622,793.346c-18.293,3.459 -17.249,2.635 -34.724,8.093c-17.884,9.847 -14.654,-3.727 -18.318,-5.9c244.174,-159.454 336.046,177.567 342.817,190.575c7.374,21.502 20.139,94.859 15.789,148.131c-11.834,144.956 -14.497,-26.376 -14.349,-28.957c-0.869,-6.005 -1.738,-12.009 -2.607,-18.014c-15.953,-18.793 -4.482,-21.987 -13.074,-45.55c-3.387,-13.431 -6.774,-26.861 -10.16,-40.292c-27.793,-65.651 -52.254,-100.827 -57.889,-108.929c-7.295,-9.403 -14.59,-18.807 -21.884,-28.21c-9.288,-10.116 -8.993,-8.988 -19.302,-17.254c-10.342,-11.301 -8.904,-13.948 -23.727,-15.413c-7.278,-9.228 -6.552,-8.63 -7.278,-9.228c-3.974,-3.267 -4.726,-0.584 -8.859,-3.983c-5.462,-4.394 -4.675,-3.13 -11.288,-4.961c-3.396,-2.09 -28.728,-29.125 -115.147,-20.111Z" style="fill:#fff;"/><path d="M741.446,1850.38c15.733,9.756 15.662,9.648 16.992,10.537c2.27,1.516 0.621,1.917 2.409,3.111c8.533,28.014 10.29,26.807 11.533,46.259c-0.194,6.79 -0.387,13.58 -0.581,20.37l-6.398,2.088l-11.373,-4.58l-5.335,-0.884c-39.803,-14.892 -94.904,-14.956 -103.251,-14.966c-19.925,-7.533 -19.218,-6.083 -39.917,-5.499c-42.888,1.21 -5.958,-93.066 135.92,-56.436Z" style="fill:#fff;"/><path d="M2051.368,1363.491c12.906,-11.513 17.337,-21.034 18.334,-23.178c19.906,-42.777 33.828,161.839 34.011,176.209l0.597,10.807l0.038,5.87c1.186,3.97 2.372,7.941 3.558,11.911c-3.206,10.999 -1.67,11.596 -11.461,17.336l-4.669,-2.621c-4.138,-1.115 -8.277,-2.23 -12.415,-3.346c-7.745,-10.308 -13.199,-21.306 -14.166,-23.258c-12.642,-60.679 -9.509,-60.036 -23.317,-120.991c-1.955,-1.846 -3.91,-3.692 -5.864,-5.537c-15.095,-12.005 -39.033,-6.537 -41.355,-6.76c-26.358,-2.537 28.113,-19.51 33.717,-25.791c13.008,-2.446 13.036,-0.951 22.992,-10.651Z" style="fill:#fff;"/><path d="M1193.027,2514.479c23.975,-23.007 31.605,-13.302 48.904,-41.317c6.524,-10.566 19.491,2.172 15.833,9.102c-9.01,17.067 -15.624,18.14 -44.709,47.739c-53.485,43.673 -52.659,43.567 -95.107,69.742c-3.487,2.037 -6.974,4.073 -10.461,6.11c-56.797,31.831 -55.421,32.508 -114.153,58.403c-10.48,-2.164 -10.257,-1.467 -16.196,-10.721c22.151,-27.208 28.801,-16.81 69.98,-44.137c14.302,-9.583 13.972,-8.117 22.116,-16.475c7.75,-5.205 66.257,-44.499 98.022,-63.319c8.59,-5.043 17.181,-10.085 25.771,-15.128Z" style="fill:#fff;"/><path d="M297.162,1635.103c2.232,-0.229 30.617,-3.136 26.094,10.286c-2.039,6.049 -22.572,-15.235 -59.396,53.284c-0.749,1.393 -50.879,80.023 -19.28,4.356c20.993,-50.269 31.498,-51.847 47.578,-61.378c1.668,-2.182 3.336,-4.365 5.003,-6.547Z" style="fill:#fff;"/></g></svg>